<?xml version="1.0" encoding="utf-8"?>
<!-- Generator: Adobe Illustrator 22.0.1, SVG Export Plug-In . SVG Version: 6.00 Build 0)  -->
<svg version="1.1" id="Layer_1" xmlns="http://www.w3.org/2000/svg" xmlns:xlink="http://www.w3.org/1999/xlink" x="0px" y="0px"
	 viewBox="0 0 360 360" style="enable-background:new 0 0 360 360;" xml:space="preserve">
<style type="text/css">
	.st0{fill:#FFFFFF;}
	.st1{fill:#F36C38;}
</style>
<g>
	<path class="st0" d="M94.9,279.9l-2.9-9.4H76l-2.9,9.4H57.2l19.4-53.4h14.9l19.4,53.4H94.9z M87.4,255.3c-1.9-6.9-2.7-9.8-3.4-13.3
		c-0.7,3.6-1.5,6.6-3.4,13.3l-1,3.5h8.8L87.4,255.3z"/>
	<path class="st0" d="M154.7,279.9h-25.6v-53.4h25.8c13.3,0,18.7,5,18.7,13.9c0,5.8-2.8,8.4-6.4,10.4c4.8,2.1,7.6,5.8,7.6,11.8
		C174.8,273.6,168.1,279.9,154.7,279.9z M154.4,238.2h-11.1v8.4h11.1c3.4,0,4.7-1.7,4.7-4.2C159.1,240,157.9,238.2,154.4,238.2z
		 M155,257.9h-11.7v10.4h11.7c3.7,0,5.3-2.2,5.3-5.3C160.3,259.9,158.5,257.9,155,257.9z"/>
	<path class="st0" d="M193.8,279.9v-53.4h40.9V239h-26.2v7.1h15.8v12.3h-15.8v9.1h26.8v12.4H193.8z"/>
	<path class="st0" d="M283.5,239.4v40.5h-14.8v-40.5h-14.9v-12.9h44.7v12.9H283.5z"/>
</g>
<path class="st1" d="M177.4,194.7c-43.2,0-78.3-35.1-78.3-78.3c0-43.2,35.1-78.3,78.3-78.3c43.2,0,78.3,35.1,78.3,78.3
	C255.7,159.6,220.6,194.7,177.4,194.7z M177.4,58.1c-32.2,0-58.3,26.2-58.3,58.3c0,32.2,26.2,58.3,58.3,58.3
	c32.2,0,58.3-26.2,58.3-58.3C235.7,84.2,209.5,58.1,177.4,58.1z"/>
<g>
	<path class="st0" d="M109.3,313.1c0,2.1-1.6,3.6-4.6,3.6h-6.9v-12.8h6.5c2.8,0,4.5,1.3,4.5,3.4c0,1.1-0.6,2.4-1.7,2.8
		C108.5,310.5,109.3,311.8,109.3,313.1z M101.6,309h2c1,0,1.5-0.5,1.5-1.1c0-0.7-0.5-1-1.5-1h-2V309z M104,313.7
		c1.1,0,1.6-0.4,1.6-1.1c0-0.7-0.5-1-1.6-1h-2.5v2.1H104z"/>
	<path class="st0" d="M116.7,308.8h5.3v3h-5.3v1.7h6.1v3.2h-9.9v-12.8h9.9v3.2h-6.1V308.8z"/>
	<path class="st0" d="M142.4,311.2h3.9c-0.2,3.4-2.8,5.8-6.5,5.8c-4,0-6.9-2.8-6.9-6.7s2.9-6.7,6.9-6.7c3.7,0,6.3,2.4,6.5,5.8h-3.9
		c-0.2-1.3-1.2-2.3-2.7-2.3c-1.8,0-3,1.4-3,3.2s1.1,3.2,3,3.2C141.2,313.5,142.2,312.5,142.4,311.2z"/>
	<path class="st0" d="M163.6,310.3c0,3.8-2.9,6.7-6.9,6.7s-6.9-2.9-6.9-6.7s2.9-6.7,6.9-6.7S163.6,306.5,163.6,310.3z M159.7,310.3
		c0-1.7-1.3-3.1-3-3.1s-3,1.4-3,3.1s1.3,3.1,3,3.1S159.7,312,159.7,310.3z"/>
	<path class="st0" d="M179.1,316.7h-2.9l-5.3-6v6H167v-12.8h2.9l5.3,6.1v-6.1h3.8V316.7z"/>
	<path class="st0" d="M187.3,309.3h5.1v3.2h-5.1v4.2h-3.8v-12.8h9.8v3.2h-6V309.3z"/>
	<path class="st0" d="M200.5,316.7h-3.8v-12.8h3.8V316.7z"/>
	<path class="st0" d="M210,303.9c4.1,0,6.9,2.5,6.9,6.4c0,3.9-2.8,6.4-6.9,6.4h-5.4v-12.8H210z M210,313.4c1.8,0,3.1-1.3,3.1-3.1
		c0-1.8-1.3-3-3.1-3h-1.6v6.1H210z"/>
	<path class="st0" d="M224.5,308.8h5.3v3h-5.3v1.7h6.1v3.2h-9.9v-12.8h9.9v3.2h-6.1V308.8z"/>
	<path class="st0" d="M246.6,316.7h-2.9l-5.3-6v6h-3.8v-12.8h2.9l5.3,6.1v-6.1h3.8V316.7z"/>
	<path class="st0" d="M257.5,307.2v9.5h-3.8v-9.5H250v-3.3h11.4v3.3H257.5z"/>
	<path class="st0" d="M267.3,305h-1.1c0-0.2-0.2-0.4-0.5-0.4c-0.2,0-0.4,0.1-0.4,0.3c0,0.2,0.1,0.2,0.3,0.3l0.6,0.1
		c0.6,0.1,1,0.4,1,1.1c0,0.7-0.6,1.2-1.6,1.2c-0.7,0-1.6-0.3-1.7-1.3h1.1c0.1,0.3,0.3,0.4,0.6,0.4c0.2,0,0.4-0.1,0.4-0.2
		c0-0.1,0-0.2-0.3-0.3l-0.6-0.1c-0.7-0.2-1-0.5-1-1c0-0.8,0.6-1.2,1.5-1.2C266.3,303.7,267.2,303.9,267.3,305z"/>
	<path class="st0" d="M272,307.4H271v-1.6l-0.7,1v0h-0.6v0l-0.7-1l0,1.6H268v-3.6h0.8l1.2,1.7l1.2-1.7h0.8V307.4z"/>
</g>
</svg>
