<?xml version="1.0" encoding="utf-8"?>
<!-- Generator: Adobe Illustrator 22.0.1, SVG Export Plug-In . SVG Version: 6.00 Build 0)  -->
<svg version="1.1" id="Layer_1" xmlns="http://www.w3.org/2000/svg" xmlns:xlink="http://www.w3.org/1999/xlink" x="0px" y="0px"
	 viewBox="0 0 430.6 128" style="enable-background:new 0 0 430.6 128;" xml:space="preserve">
<style type="text/css">
	.st0{fill:#FFFFFF;}
	.st1{clip-path:url(#SVGID_2_);fill:#FFFFFF;}
	.st2{clip-path:url(#SVGID_4_);fill:#FFFFFF;}
	.st3{clip-path:url(#SVGID_6_);fill:#FFFFFF;}
	.st4{clip-path:url(#SVGID_8_);fill:#FFFFFF;}
	.st5{fill:#F26B38;}
	.st6{clip-path:url(#SVGID_10_);fill:#FFFFFF;}
	.st7{clip-path:url(#SVGID_12_);fill:#FFFFFF;}
</style>
<g>
	<path class="st0" d="M10.7,78.7l2.1,5.3H8.7L10.7,78.7z M8.9,74.1l-6.8,16h4.2l1-2.7h6.7l1.1,2.7h4.2l-6.7-16H8.9z"/>
	<g>
		<defs>
			<rect id="SVGID_1_" x="1.4" y="1" width="427.3" height="126"/>
		</defs>
		<clipPath id="SVGID_2_">
			<use xlink:href="#SVGID_1_"  style="overflow:visible;"/>
		</clipPath>
		<path class="st1" d="M45.2,86.8h-3.8v-3.1h3.9c1.4,0,2.3,0.5,2.3,1.5C47.6,86.1,46.8,86.8,45.2,86.8 M41.4,77.4h3.3
			c1.5,0,2.3,0.5,2.3,1.5c0,1-0.8,1.7-2.3,1.7h-3.3V77.4z M50.7,78.4c0-2.6-2-4.2-5.4-4.2h-7.8v15.9h8.3c3.5,0,5.7-1.8,5.7-4.4
			c0-1.7-1-3.3-2.9-3.8C49.9,81.4,50.7,79.9,50.7,78.4"/>
	</g>
	<polygon class="st0" points="82,77.6 82,74.2 70,74.2 70,90.1 82,90.1 82,86.7 73.9,86.7 73.9,83.9 81,83.9 81,80.5 73.9,80.5 
		73.9,77.6 	"/>
	<polygon class="st0" points="108.7,90.1 108.7,77.7 113.8,77.7 113.8,74.2 99.7,74.2 99.7,77.7 104.8,77.7 104.8,90.1 	"/>
	<g>
		<defs>
			<rect id="SVGID_3_" x="1.4" y="1" width="427.3" height="126"/>
		</defs>
		<clipPath id="SVGID_4_">
			<use xlink:href="#SVGID_3_"  style="overflow:visible;"/>
		</clipPath>
		<path class="st2" d="M161.3,87c-1.9,0-3.1-0.8-3.3-2.2h-4c0.4,3.9,3.6,5.6,7.2,5.6c4,0,6.6-2,6.6-5.2c0-2.7-1.9-3.9-4.8-4.5
			l-2.2-0.5c-1.2-0.3-1.8-0.6-1.8-1.5c0-1,0.9-1.6,2.3-1.6c1.6,0,2.4,0.8,2.6,2h4c-0.4-4.3-4.2-5.3-6.8-5.3c-3.7,0-6.3,2-6.3,5.2
			c0,2.5,1.5,4,4.6,4.7l2.6,0.6c1.4,0.3,1.7,0.8,1.7,1.4C163.5,86.5,162.8,87,161.3,87"/>
	</g>
	<polygon class="st0" points="195.6,90.1 195.6,85.3 201.9,74.2 197.5,74.2 193.6,81.1 189.7,74.2 185.4,74.2 191.6,85.3 
		191.6,90.1 	"/>
	<polygon class="st0" points="236.9,90.1 236.9,74.2 234,74.2 228.4,82.7 222.7,74.2 219.8,74.2 219.8,90.1 223.7,90.1 223.7,82.1 
		227.3,87.6 227.3,87.6 229.5,87.6 229.5,87.6 233,82.1 233,90.1 	"/>
	<g>
		<defs>
			<rect id="SVGID_5_" x="1.4" y="1" width="427.3" height="126"/>
		</defs>
		<clipPath id="SVGID_6_">
			<use xlink:href="#SVGID_5_"  style="overflow:visible;"/>
		</clipPath>
		<path class="st3" d="M265.3,80c0,1.6-1.1,2.6-2.9,2.6H260v-4.9h2.4C264.2,77.7,265.3,78.6,265.3,80 M256.1,74.2v15.9h3.9v-4h2.2
			c4.3,0,7-2.3,7-6c0-3.6-2.6-5.8-6.7-5.8H256.1z"/>
		<path class="st3" d="M299.9,82.1c0,2.5-1.8,4.6-4.4,4.6c-2.6,0-4.4-2.1-4.4-4.6c0-2.5,1.8-4.6,4.4-4.6
			C298,77.5,299.9,79.6,299.9,82.1 M287.1,82.1c0,4.6,3.6,8.3,8.4,8.3c4.8,0,8.4-3.6,8.4-8.3c0-4.6-3.6-8.3-8.4-8.3
			C290.7,73.9,287.1,77.5,287.1,82.1"/>
		<path class="st3" d="M329.5,87c-1.9,0-3.1-0.8-3.3-2.2h-3.9c0.4,3.9,3.6,5.6,7.2,5.6c4,0,6.6-2,6.6-5.2c0-2.7-1.9-3.9-4.8-4.5
			l-2.2-0.5c-1.2-0.3-1.8-0.6-1.8-1.5c0-1,0.9-1.6,2.3-1.6c1.6,0,2.4,0.8,2.6,2h4c-0.4-4.3-4.2-5.3-6.8-5.3c-3.7,0-6.3,2-6.3,5.2
			c0,2.5,1.5,4,4.6,4.7l2.6,0.6c1.4,0.3,1.7,0.8,1.7,1.4C331.7,86.5,331,87,329.5,87"/>
	</g>
	<rect x="354.8" y="74.2" class="st0" width="3.9" height="15.9"/>
	<g>
		<defs>
			<rect id="SVGID_7_" x="1.4" y="1" width="427.3" height="126"/>
		</defs>
		<clipPath id="SVGID_8_">
			<use xlink:href="#SVGID_7_"  style="overflow:visible;"/>
		</clipPath>
		<path class="st4" d="M377.7,74.2v8.5c0,4.9,2.8,7.8,7.4,7.8c4.6,0,7.4-2.8,7.4-7.8v-8.5h-4v8.6c0,2.4-1.4,4-3.4,4
			c-2.1,0-3.4-1.6-3.4-4v-8.6H377.7z"/>
	</g>
	<polygon class="st0" points="425.6,74.2 420,82.7 414.4,74.2 411.4,74.2 411.4,90.1 415.4,90.1 415.3,82.1 418.9,87.6 418.9,87.6 
		421.1,87.6 421.1,87.6 424.6,82.1 424.6,90.1 428.6,90.1 428.6,74.2 	"/>
	<rect x="2.1" y="119.5" class="st5" width="426.5" height="7.6"/>
	<polygon class="st0" points="1.4,1.6 1.4,5.3 11.7,5.3 11.7,30.3 15.7,30.3 15.7,5.3 26,5.3 26,1.6 	"/>
	<polygon class="st0" points="87.9,30.3 83.8,30.3 83.8,18 68,18 68,30.3 64,30.3 64,1.6 68,1.6 68,14.3 83.8,14.3 83.8,1.6 
		87.9,1.6 	"/>
	<polygon class="st0" points="132.8,14.2 147.4,14.2 147.4,17.9 132.8,17.9 132.8,26.6 149.1,26.6 149.1,30.3 128.8,30.3 128.8,1.6 
		149.1,1.6 149.1,5.3 132.8,5.3 	"/>
	<g>
		<defs>
			<rect id="SVGID_9_" x="1.4" y="1" width="427.3" height="126"/>
		</defs>
		<clipPath id="SVGID_10_">
			<use xlink:href="#SVGID_9_"  style="overflow:visible;"/>
		</clipPath>
		<path class="st6" d="M251.5,30.3h-19v-2.1l9.2-10.1c3.3-3.6,5.4-5.8,5.4-8.5c0-2.7-1.9-5-5.6-5c-3.3,0-5.5,2.1-5.9,5.3h-4
			c0.2-5.2,4.1-8.8,10-8.8c6.1,0,9.4,3.9,9.4,8.5c0,3.3-2,5.8-6.1,10.2l-6.5,7.2h13.1V30.3z"/>
		<path class="st6" d="M310.4,15.9c0-6.5-2.9-11.3-8.5-11.3c-5.6,0-8.5,4.8-8.5,11.3c0,6.5,2.9,11.3,8.5,11.3
			C307.4,27.3,310.4,22.5,310.4,15.9 M314.4,15.9c0,8.7-4.6,14.9-12.5,14.9c-7.9,0-12.5-6.2-12.5-14.9S293.9,1,301.9,1
			C309.8,1,314.4,7.2,314.4,15.9"/>
	</g>
	<polygon class="st0" points="370.4,30.3 351.3,30.3 351.3,26.9 359.1,26.9 359.1,6 351.7,8.5 351.7,5 360.9,1.6 363.1,1.6 
		363.1,26.9 370.4,26.9 	"/>
	<g>
		<defs>
			<rect id="SVGID_11_" x="1.4" y="1" width="427.3" height="126"/>
		</defs>
		<clipPath id="SVGID_12_">
			<use xlink:href="#SVGID_11_"  style="overflow:visible;"/>
		</clipPath>
		<path class="st7" d="M417.3,27.7c-3.9,0-6.6-2.4-6.6-5.5c0-3,2.6-5.2,6.6-5.2c3.9,0,6.6,2.2,6.6,5.2
			C423.8,25.3,421.1,27.7,417.3,27.7 M417.3,4.4c3.4,0,5.8,2.2,5.8,5c0,2.9-2.4,4.9-5.8,4.9c-3.4,0-5.8-2-5.8-4.9
			C411.5,6.6,413.9,4.4,417.3,4.4 M423,15.3c2.5-1.2,3.9-3.4,3.9-6.2c0-4.6-4-7.9-9.7-7.9c-5.7,0-9.7,3.3-9.7,7.9
			c0,2.9,1.5,5,3.9,6.2c-3.3,1.3-5.2,3.9-5.2,7.1c0,5,4.2,8.6,10.9,8.6c6.7,0,10.9-3.5,10.9-8.6C428.2,19.2,426.3,16.6,423,15.3"/>
	</g>
</g>
</svg>
